<svg width="168" height="118" viewBox="0 0 168 118" fill="none" xmlns="http://www.w3.org/2000/svg">
<path d="M109 75.6667C113.602 75.6667 117.333 71.9357 117.333 67.3333C117.333 62.731 113.602 59 109 59C104.398 59 100.667 62.731 100.667 67.3333C100.667 71.9357 104.398 75.6667 109 75.6667Z" fill="white"/>
<path d="M125.667 59C130.269 59 134 55.269 134 50.6666C134 46.0643 130.269 42.3333 125.667 42.3333C121.064 42.3333 117.333 46.0643 117.333 50.6666C117.333 55.269 121.064 59 125.667 59Z" fill="white"/>
<path d="M67.3333 34H50.6667V50.6667H34V67.3333H50.6667V84H67.3333V67.3333H84V50.6667H67.3333V34Z" fill="white"/>
<path d="M109 0.666687H59C43.529 0.666687 28.6917 6.8125 17.7521 17.7521C6.81244 28.6917 0.666626 43.5291 0.666626 59C0.666626 74.471 6.81244 89.3083 17.7521 100.248C28.6917 111.188 43.529 117.333 59 117.333H109C124.471 117.333 139.308 111.188 150.248 100.248C161.187 89.3083 167.333 74.471 167.333 59C167.333 43.5291 161.187 28.6917 150.248 17.7521C139.308 6.8125 124.471 0.666687 109 0.666687V0.666687ZM109 100.667H59C47.9493 100.667 37.3512 96.2768 29.5372 88.4628C21.7232 80.6488 17.3333 70.0507 17.3333 59C17.3333 47.9493 21.7232 37.3513 29.5372 29.5372C37.3512 21.7232 47.9493 17.3334 59 17.3334H109C120.051 17.3334 130.649 21.7232 138.463 29.5372C146.277 37.3513 150.667 47.9493 150.667 59C150.667 70.0507 146.277 80.6488 138.463 88.4628C130.649 96.2768 120.051 100.667 109 100.667Z" fill="white"/>
</svg>
